<svg xmlns="http://www.w3.org/2000/svg" version="1.1" xmlns:xlink="http://www.w3.org/1999/xlink" xmlns:svgjs="http://svgjs.dev/svgjs" width="1000" height="179" viewBox="0 0 1000 179"><g transform="matrix(1,0,0,1,-0.6060532342298188,0.2377679559365049)"><svg viewBox="0 0 396 71" data-background-color="#ffffff" preserveAspectRatio="xMidYMid meet" height="179" width="1000" xmlns="http://www.w3.org/2000/svg" xmlns:xlink="http://www.w3.org/1999/xlink"><g id="tight-bounds" transform="matrix(1,0,0,1,0.23999708075501758,-0.094310194812806)"><svg viewBox="0 0 395.52 71.1886203896256" height="71.1886203896256" width="395.52"><g><svg viewBox="0 0 499.59244381118765 89.92034999999998" height="71.1886203896256" width="395.52"><g><svg viewBox="0 0 499.59244381118765 89.92034999999998" height="89.92034999999998" width="499.59244381118765"><g><svg viewBox="0 0 499.59244381118765 89.92034999999998" height="89.92034999999998" width="499.59244381118765"><g><svg viewBox="0 0 499.59244381118765 89.92034999999998" height="89.92034999999998" width="499.59244381118765"><g><svg><g></g><g></g></svg></g><g><svg><g><svg></svg></g><g></g></svg></g><g id="text-0"><svg viewBox="0 0 499.59244381118765 89.92034999999998" height="89.92034999999998" width="499.59244381118765"><g transform="matrix(1,0,0,1,0,4.568730678059538)"><svg width="395.5199999999999" viewBox="3.549999952316284 -36.650001525878906 181.37998962402344 37.05000305175781" height="80.78288864388091" data-palette-color="#19171c"><path d="M5.65 0L5.65 0Q4.9 0 4.23-0.38 3.55-0.75 3.55-1.5L3.55-1.5 3.55-35.1Q3.55-35.7 4.03-36.1 4.5-36.5 5.25-36.55L5.25-36.55 14.7-36.55Q17.7-36.55 20.1-35.48 22.5-34.4 23.9-32.05 25.3-29.7 25.3-25.75L25.3-25.75 25.3-25.3Q25.3-21.4 23.88-19 22.45-16.6 20-15.53 17.55-14.45 14.5-14.45L14.5-14.45 7.75-14.45 7.75-1.5Q7.75-0.75 7.1-0.38 6.45 0 5.65 0ZM7.75-32.75L7.75-17.95 14.5-17.95Q17.6-17.95 19.35-19.7 21.1-21.45 21.1-25.05L21.1-25.05 21.1-25.65Q21.1-29.3 19.35-31.03 17.6-32.75 14.5-32.75L14.5-32.75 7.75-32.75ZM40.7 0.3L40.7 0.3Q37.65 0.3 35.22-0.78 32.8-1.85 31.37-4.23 29.95-6.6 29.95-10.6L29.95-10.6 29.95-25.65Q29.95-29.65 31.37-32.02 32.8-34.4 35.22-35.48 37.65-36.55 40.7-36.55L40.7-36.55Q43.75-36.55 46.2-35.48 48.65-34.4 50.07-32.02 51.5-29.65 51.5-25.65L51.5-25.65 51.5-10.6Q51.5-6.6 50.07-4.23 48.65-1.85 46.2-0.78 43.75 0.3 40.7 0.3ZM40.7-3.5L40.7-3.5Q43.8-3.5 45.55-5.23 47.3-6.95 47.3-10.6L47.3-10.6 47.3-25.65Q47.3-29.3 45.55-31.03 43.8-32.75 40.7-32.75L40.7-32.75Q37.6-32.75 35.87-31.03 34.15-29.3 34.15-25.65L34.15-25.65 34.15-10.6Q34.15-6.95 35.87-5.23 37.6-3.5 40.7-3.5ZM66.95 0.4L66.95 0.4Q63.75 0.4 61.35-0.58 58.95-1.55 57.65-2.88 56.35-4.2 56.35-5.25L56.35-5.25Q56.35-5.75 56.62-6.28 56.9-6.8 57.32-7.18 57.75-7.55 58.2-7.55L58.2-7.55Q58.8-7.55 59.37-6.95 59.95-6.35 60.82-5.53 61.7-4.7 63.1-4.1 64.5-3.5 66.75-3.5L66.75-3.5Q68.85-3.5 70.4-4.17 71.95-4.85 72.82-6.23 73.7-7.6 73.7-9.7L73.7-9.7Q73.7-11.85 72.8-13.2 71.9-14.55 70.42-15.45 68.95-16.35 67.22-17.05 65.5-17.75 63.72-18.48 61.95-19.2 60.5-20.28 59.05-21.35 58.15-23.05 57.25-24.75 57.25-27.35L57.25-27.35Q57.25-30.1 58.25-31.9 59.25-33.7 60.9-34.75 62.55-35.8 64.47-36.23 66.4-36.65 68.25-36.65L68.25-36.65Q69.6-36.65 71.1-36.45 72.6-36.25 73.95-35.85 75.3-35.45 76.15-34.83 77-34.2 77-33.35L77-33.35Q77-32.95 76.8-32.43 76.6-31.9 76.2-31.48 75.8-31.05 75.2-31.05L75.2-31.05Q74.65-31.05 73.85-31.53 73.05-32 71.72-32.48 70.4-32.95 68.25-32.95L68.25-32.95Q66.45-32.95 64.87-32.45 63.3-31.95 62.37-30.8 61.45-29.65 61.45-27.75L61.45-27.75Q61.45-25.95 62.35-24.8 63.25-23.65 64.7-22.9 66.15-22.15 67.9-21.53 69.65-20.9 71.4-20.08 73.15-19.25 74.62-18.05 76.1-16.85 77-14.93 77.9-13 77.9-10.1L77.9-10.1Q77.9-6.5 76.47-4.17 75.05-1.85 72.6-0.73 70.15 0.4 66.95 0.4ZM91.84 0L91.84 0Q91.04 0 90.39-0.38 89.74-0.75 89.74-1.5L89.74-1.5 89.74-32.65 81.64-32.65Q80.99-32.65 80.59-33.25 80.19-33.85 80.19-34.65L80.19-34.65Q80.19-35.35 80.54-35.95 80.89-36.55 81.64-36.55L81.64-36.55 102.04-36.55Q102.79-36.55 103.14-35.95 103.49-35.35 103.49-34.65L103.49-34.65Q103.49-33.9 103.14-33.27 102.79-32.65 102.04-32.65L102.04-32.65 93.94-32.65 93.94-1.5Q93.94-0.75 93.29-0.38 92.64 0 91.84 0ZM106.09 0.3L106.09 0.3Q104.94 0.3 104.19-0.5 103.44-1.3 103.44-2.3L103.44-2.3Q103.44-3.4 104.19-4.17 104.94-4.95 106.09-4.95L106.09-4.95Q107.09-4.95 107.87-4.17 108.64-3.4 108.64-2.3L108.64-2.3Q108.64-1.3 107.87-0.5 107.09 0.3 106.09 0.3ZM123.94 0.3L123.94 0.3Q121.04 0.3 118.59-0.78 116.14-1.85 114.69-4.25 113.24-6.65 113.24-10.6L113.24-10.6 113.24-25.65Q113.24-29.6 114.71-32 116.19-34.4 118.64-35.48 121.09-36.55 123.99-36.55L123.99-36.55Q127.39-36.55 129.79-35.4 132.19-34.25 133.49-32.27 134.79-30.3 134.79-27.85L134.79-27.85Q134.79-26.45 134.26-26 133.74-25.55 132.69-25.55L132.69-25.55Q131.69-25.55 131.16-25.95 130.64-26.35 130.59-27L130.59-27Q130.54-27.75 130.31-28.73 130.09-29.7 129.41-30.63 128.74-31.55 127.46-32.15 126.19-32.75 124.09-32.75L124.09-32.75Q120.89-32.75 119.16-31.03 117.44-29.3 117.44-25.65L117.44-25.65 117.44-10.6Q117.44-6.95 119.19-5.23 120.94-3.5 124.24-3.5L124.24-3.5Q126.34-3.5 127.56-4.1 128.79-4.7 129.39-5.6 129.99-6.5 130.24-7.53 130.49-8.55 130.59-9.45L130.59-9.45Q130.64-10.2 131.19-10.55 131.74-10.9 132.69-10.9L132.69-10.9Q133.74-10.9 134.26-10.43 134.79-9.95 134.79-8.55L134.79-8.55Q134.79-6.1 133.46-4.08 132.14-2.05 129.71-0.88 127.29 0.3 123.94 0.3ZM148.89 0.4L148.89 0.4Q145.69 0.4 143.29-0.58 140.89-1.55 139.59-2.88 138.29-4.2 138.29-5.25L138.29-5.25Q138.29-5.75 138.56-6.28 138.84-6.8 139.26-7.18 139.69-7.55 140.14-7.55L140.14-7.55Q140.74-7.55 141.31-6.95 141.89-6.35 142.76-5.53 143.64-4.7 145.04-4.1 146.44-3.5 148.69-3.5L148.69-3.5Q150.79-3.5 152.34-4.17 153.89-4.85 154.76-6.23 155.64-7.6 155.64-9.7L155.64-9.7Q155.64-11.85 154.74-13.2 153.84-14.55 152.36-15.45 150.89-16.35 149.16-17.05 147.44-17.75 145.66-18.48 143.89-19.2 142.44-20.28 140.99-21.35 140.09-23.05 139.19-24.75 139.19-27.35L139.19-27.35Q139.19-30.1 140.19-31.9 141.19-33.7 142.84-34.75 144.49-35.8 146.41-36.23 148.34-36.65 150.19-36.65L150.19-36.65Q151.54-36.65 153.04-36.45 154.54-36.25 155.89-35.85 157.24-35.45 158.09-34.83 158.94-34.2 158.94-33.35L158.94-33.35Q158.94-32.95 158.74-32.43 158.54-31.9 158.14-31.48 157.74-31.05 157.14-31.05L157.14-31.05Q156.59-31.05 155.79-31.53 154.99-32 153.66-32.48 152.34-32.95 150.19-32.95L150.19-32.95Q148.39-32.95 146.81-32.45 145.24-31.95 144.31-30.8 143.39-29.65 143.39-27.75L143.39-27.75Q143.39-25.95 144.29-24.8 145.19-23.65 146.64-22.9 148.09-22.15 149.84-21.53 151.59-20.9 153.34-20.08 155.09-19.25 156.56-18.05 158.04-16.85 158.94-14.93 159.84-13 159.84-10.1L159.84-10.1Q159.84-6.5 158.41-4.17 156.99-1.85 154.54-0.73 152.09 0.4 148.89 0.4ZM173.98 0.4L173.98 0.4Q170.78 0.4 168.38-0.58 165.98-1.55 164.68-2.88 163.38-4.2 163.38-5.25L163.38-5.25Q163.38-5.75 163.66-6.28 163.93-6.8 164.36-7.18 164.78-7.55 165.23-7.55L165.23-7.55Q165.83-7.55 166.41-6.95 166.98-6.35 167.86-5.53 168.73-4.7 170.13-4.1 171.53-3.5 173.78-3.5L173.78-3.5Q175.88-3.5 177.43-4.17 178.98-4.85 179.86-6.23 180.73-7.6 180.73-9.7L180.73-9.7Q180.73-11.85 179.83-13.2 178.93-14.55 177.46-15.45 175.98-16.35 174.26-17.05 172.53-17.75 170.76-18.48 168.98-19.2 167.53-20.28 166.08-21.35 165.18-23.05 164.28-24.75 164.28-27.35L164.28-27.35Q164.28-30.1 165.28-31.9 166.28-33.7 167.93-34.75 169.58-35.8 171.51-36.23 173.43-36.65 175.28-36.65L175.28-36.65Q176.63-36.65 178.13-36.45 179.63-36.25 180.98-35.85 182.33-35.45 183.18-34.83 184.03-34.2 184.03-33.35L184.03-33.35Q184.03-32.95 183.83-32.43 183.63-31.9 183.23-31.48 182.83-31.05 182.23-31.05L182.23-31.05Q181.68-31.05 180.88-31.53 180.08-32 178.76-32.48 177.43-32.95 175.28-32.95L175.28-32.95Q173.48-32.95 171.91-32.45 170.33-31.95 169.41-30.8 168.48-29.65 168.48-27.75L168.48-27.75Q168.48-25.95 169.38-24.8 170.28-23.65 171.73-22.9 173.18-22.15 174.93-21.53 176.68-20.9 178.43-20.08 180.18-19.25 181.66-18.05 183.13-16.85 184.03-14.93 184.93-13 184.93-10.1L184.93-10.1Q184.93-6.5 183.51-4.17 182.08-1.85 179.63-0.73 177.18 0.4 173.98 0.4Z" opacity="1" transform="matrix(1,0,0,1,0,0)" fill="#19171c" class="undefined-text-0" data-fill-palette-color="primary"></path></svg></g><g><svg xmlns="http://www.w3.org/2000/svg" xmlns:xlink="http://www.w3.org/1999/xlink" version="1.1" x="409.6730999999999" y="0" viewBox="5 5 89.99899291992188 90" enable-background="new 0 0 100 100" xml:space="preserve" height="89.92034999999998" width="89.91934381118773" class="icon-a-0" data-fill-palette-color="accent" id="a-0"><g fill="#f7c600" data-fill-palette-color="accent"><path d="M89.438 5H18.902c-3.071 0-5.562 2.483-5.562 5.549v33.753h42.474v42.166h33.623c3.072 0 5.562-2.482 5.562-5.549V10.549C95 7.483 92.511 5 89.438 5z" fill="#f7c600" data-fill-palette-color="accent"></path><path d="M5 89.451C5 92.518 7.489 95 10.562 95h35.267V54.264H5V89.451z" fill="#f7c600" data-fill-palette-color="accent"></path></g></svg></g></svg></g></svg></g></svg></g></svg></g><g></g></svg></g><defs></defs></svg><rect width="395.52" height="71.1886203896256" fill="none" stroke="none" visibility="hidden"></rect></g></svg></g></svg>